<svg xmlns="http://www.w3.org/2000/svg" width="12" height="20" viewBox="0 0 12 20">
  <path fill="#FFF" fill-opacity=".8" fill-rule="evenodd" d="M4.06711233,14.7587595 L5.9151846,17.8136847 C5.93623131,17.8594325 5.95490148,17.8965184 5.95705752,17.8965184 L6.04294248,17.8965184 C6.04509852,17.8965184 6.06376869,17.8594325 6.0848154,17.8136847 L7.93288767,14.7587595 C7.94752962,14.741854 7.96026921,14.7207614 7.97059911,14.6964213 L7.9889989,14.6660058 C8.00247443,14.6480345 8.00315897,14.6313999 7.99329942,14.6178251 C7.99880511,14.5864287 8.00107767,14.5524199 7.99951951,14.5169052 L7.52077032,3.60495164 C7.51381228,3.44635939 7.45190237,3.31779497 7.38249069,3.31779497 L4.61750931,3.31779497 C4.54809763,3.31779497 4.48618772,3.44635939 4.47922968,3.60495164 L4.00048049,14.5169052 C3.99892233,14.5524199 4.00119489,14.5864287 4.00670058,14.6178251 C3.99684103,14.6313999 3.99752557,14.6480345 4.0110011,14.6660058 L4.02940089,14.6964213 C4.03973079,14.7207614 4.05247038,14.741854 4.06711233,14.7587595 Z M4.15518736,-3.05311332e-16 L4.47922968,2.13051257 C4.48618772,2.17626034 4.54809763,2.21334623 4.61750931,2.21334623 L7.38249069,2.21334623 C7.45190237,2.21334623 7.51381228,2.17626034 7.52077032,2.13051257 L7.84481264,3.60822483e-16 L11.4638644,0 C11.7400068,0 11.9470445,0.223857625 11.9262961,0.5 L10.4986985,19.5 C10.47795,19.7761424 10.2933389,20 10.086358,20 L1.84137091,20 C1.63438997,20 1.44977884,19.7761424 1.42903041,19.5 L0.00143279822,0.5 C-0.0193156331,0.223857625 0.187722065,0 0.46386444,0 L4.15518736,0 Z"/>
</svg>
