<svg xmlns="http://www.w3.org/2000/svg" width="12" height="20" viewBox="0 0 12 20">
  <g fill="none" fill-opacity=".8" fill-rule="evenodd">
    <path fill="#FFF" d="M0.46386444,0 L11.4638644,0 C11.7400068,0 11.9470445,0.223857625 11.9262961,0.5 L10.4986985,19.5 C10.47795,19.7761424 10.2933389,20 10.086358,20 L1.84137091,20 C1.63438997,20 1.44977884,19.7761424 1.42903041,19.5 L0.00143279822,0.5 C-0.0193156331,0.223857625 0.187722065,0 0.46386444,0 Z M11.7702058,2.57741684 L0.218218042,3.38521051 L1.42903041,19.5 C1.44977884,19.7761424 1.63438997,20 1.84137091,20 L10.086358,20 C10.2933389,20 10.47795,19.7761424 10.4986985,19.5 L11.7702058,2.57741684 Z"/>
    <path fill="#F3D401" d="M11.7702058,2.57741684 L10.4986985,19.5 C10.47795,19.7761424 10.2933389,20 10.086358,20 L1.84137091,20 C1.63438997,20 1.44977884,19.7761424 1.42903041,19.5 L0.218218042,3.38521051 L11.7702058,2.57741684 Z"/>
  </g>
</svg>
